<?xml version="1.0" encoding="UTF-8"?>
<svg id="Camada_1" data-name="Camada 1" xmlns="http://www.w3.org/2000/svg" viewBox="0 0 503.53 450">
  <defs>
    <style>
      .cls-1 {
        fill: #0f691a;
      }

      .cls-2 {
        fill: #5a9862;
      }
    </style>
  </defs>
  <path class="cls-1" d="M282,0c.62.21,1.3.21,1.92,0h.24c-.02.13.09.19.26.21,5.67.41,9.35,3.72,11.9,8.6l27.93,53.47-11.13,4.16c-17.07,6.37-33.62,13.61-50.1,21.37,14.55-5.04,29.17-8.74,44.43-9.98,1.12-.09,2.06-.02,3.12-.41,1.4.35,2.7-.14,4.07-.14h14.88c.89.01,1.68.41,2.67.21l10.35,20.84,13.11,26.45,13.28,26.79,13.12,26.46,13.29,26.8,13.44,27.07-151.47,52.33c-.33.11-.43.04-.54.02-.25-.03-.14-.21-.11-.47.79-7.91,2.15-15.7,4.02-23.52,6.37-26.73,17.27-51.97,32.26-75.08-2.05.5-3.6,1.48-5.32,2.27-11.41,6.05-21.9,14.4-31.28,23.18-3.68,3.44-7.15,6.85-10.53,10.52l-3.02,3.27-2.75,3.06c-19.79,21.97-42.89,57.79-56.19,84.32l-15.05,30.03-6.25,12.5-4.33,8.44c-6.1,11.9-12.64,23.43-19.99,34.65-5.72,8.71-11.8,16.98-18.73,24.67l-1.73,1.91c-1.78,1.97-3.59,3.7-5.55,5.52-11.79,10.93-24.78,18.81-41.26,20.45l-70.93.02v-.24L194.4,131.73c13.47-3.37,26.52-8.05,39.43-13.16,15.66-6.2,30.99-12.7,45.97-19.74-17.54,6.15-32.29,9.33-50.52,10.53h-16.36c1.1,0-6.07-.32-4.51-.59L270.64,6.94c2.47-4.03,6.41-6.22,10.88-6.94h.48Z"/>
  <path class="cls-2" d="M283.92,0c-.47.41-1.45.41-1.92,0h1.92Z"/>
  <path class="cls-1" d="M472,402.43c-2.03-2.16-4.06-4.17-6.14-6.13l-3.74-3.54c-15.4-14.56-42.67-32.57-61.72-42.1l-14.11-7.06c-17.04-8.52-34.84-15.23-52.9-21.46-14.99-5.14-30.1-9.66-45.45-13.56l-26.76-6.15,155.24-53.17,6.91,13.89,5.58,11.46,3.57,7.34c17.48,35.94,33.55,72.41,48.79,109.43,7.78,18.9,15.23,37.81,22.22,56.91.15.4-.07.66-.2.32-6.25-14.92-17.28-31.24-28.18-42.87l-3.11-3.32Z"/>
</svg>